<svg width="16" height="18" viewBox="0 0 16 18" fill="none" xmlns="http://www.w3.org/2000/svg">
<path d="M0.895455 17.1342C0.534149 17.1342 0.206454 16.9157 0.0686533 16.5813C-0.0708276 16.2469 0.00647511 15.8604 0.26191 15.6049L5.13533 10.7315C5.48656 10.382 6.05288 10.382 6.40243 10.7315C6.75365 11.0811 6.75365 11.6491 6.40243 11.9986L1.529 16.872C1.36263 17.0401 1.13409 17.1342 0.895455 17.1342Z" fill="#1D4ED8"/>
<path d="M15.2432 0.603227L2.50002 13.3447C-0.161874 10.6828 -0.161874 6.36563 2.50002 3.70205C6.28785 -0.0857747 15.2432 0.603227 15.2432 0.603227Z" fill="#598AFF"/>
<path d="M12.1427 13.3446C9.48082 16.0082 5.16364 16.0082 2.50006 13.3446L15.2432 0.603088C15.2432 0.603088 15.9322 9.55675 12.1427 13.3446Z" fill="#1D4ED8"/>
</svg>
